<svg width="182" height="33" viewBox="0 0 182 33" fill="none" xmlns="http://www.w3.org/2000/svg">
<path d="M1.59334 14.3171L1.36572 14.2261L1.43401 14.0668C1.7982 13.1791 2.77695 10.8346 4.98484 9.24127L5.12141 9.44613C2.95905 10.9939 2.00305 13.2929 1.63886 14.1806L1.59334 14.3171Z" fill="#C0BEC0"/>
<path d="M5.1897 22.3748C4.18818 21.7147 1.93477 19.1882 1.36572 16.3202L1.59334 16.2747C2.16238 19.1199 4.46132 21.6237 5.32627 22.17L5.1897 22.3748Z" fill="#C0BEC0"/>
<path d="M16.7982 29.431C13.7026 28.7026 10.607 25.8801 10.5615 25.8574L10.7209 25.6753C10.7436 25.6981 13.7937 28.475 16.8438 29.1806L16.7982 29.431Z" fill="#C0BEC0"/>
<path d="M19.7116 29.4992L19.6433 29.2716C19.6661 29.2716 22.4885 28.4067 23.6721 25.5615L23.8998 25.6525C22.6479 28.6115 19.7344 29.4992 19.7116 29.4992Z" fill="#C0BEC0"/>
<path d="M8.58108 6.28225L8.37622 6.14568C8.39898 6.10015 10.6979 2.66313 14.2488 1.79818C17.7996 0.933234 22.8527 5.34902 23.0576 5.55387L22.8982 5.73597C22.8527 5.69044 17.7313 1.20638 14.317 2.04856C10.8573 2.86798 8.60384 6.23672 8.58108 6.28225Z" fill="#C0BEC0"/>
<path d="M9.49176 10.4704C9.49176 10.4704 12.2004 14.2944 12.428 16.7527C12.428 16.7527 9.78766 11.563 8.67233 10.7436C7.55701 9.92415 9.49176 10.4704 9.49176 10.4704Z" fill="#FF7228"/>
<path d="M12.4053 16.7754L10.2429 21.9195L8.78613 20.7359L12.4053 16.7754Z" fill="#0FBBD0"/>
<path d="M12.4053 16.7754C12.4053 16.7754 18.6648 9.60545 22.7846 7.83003L22.9667 6.10013C22.9667 6.07737 16.1154 10.0152 12.4053 16.7754Z" fill="#0FBBD0"/>
<path d="M30.3642 20.5994L30.2048 20.4173C31.1836 19.5296 32.3444 18.3005 32.7314 16.5933L32.959 16.6388C32.5721 18.4143 31.3657 19.6889 30.3642 20.5994Z" fill="#C0BEC0"/>
<path d="M27.1548 22.8756L27.041 22.648C27.0638 22.648 28.6116 21.8741 30.2049 20.4173L30.3642 20.5994C28.7254 22.0789 27.1548 22.8528 27.1548 22.8756Z" fill="#0FBBD0"/>
<path d="M33.4825 14.6586L33.2322 14.613C33.9833 9.44611 29.0668 7.1927 29.0212 7.16994L29.1123 6.94232C29.1578 6.98785 34.2337 9.30955 33.4825 14.6586Z" fill="#C0BEC0"/>
<path d="M26.085 10.038C28.0335 10.038 29.613 8.45839 29.613 6.50988C29.613 4.56138 28.0335 2.98181 26.085 2.98181C24.1365 2.98181 22.5569 4.56138 22.5569 6.50988C22.5569 8.45839 24.1365 10.038 26.085 10.038Z" fill="#0FBBD0"/>
<path d="M8.14883 26.8816C10.0219 26.8816 11.5403 25.3632 11.5403 23.4901C11.5403 21.6171 10.0219 20.0986 8.14883 20.0986C6.27575 20.0986 4.75732 21.6171 4.75732 23.4901C4.75732 25.3632 6.27575 26.8816 8.14883 26.8816Z" fill="#0FBBD0"/>
<path d="M7.80738 11.5175C9.37875 11.5175 10.6526 10.2436 10.6526 8.67225C10.6526 7.10087 9.37875 5.82703 7.80738 5.82703C6.23601 5.82703 4.96216 7.10087 4.96216 8.67225C4.96216 10.2436 6.23601 11.5175 7.80738 11.5175Z" fill="#FF7228"/>
<path d="M25.1519 26.0394C26.5598 26.0394 27.7012 24.8981 27.7012 23.4901C27.7012 22.0822 26.5598 20.9408 25.1519 20.9408C23.7439 20.9408 22.6025 22.0822 22.6025 23.4901C22.6025 24.8981 23.7439 26.0394 25.1519 26.0394Z" fill="#0FBBD0"/>
<path d="M18.5052 32.0713C19.5486 32.0713 20.3944 31.2255 20.3944 30.1821C20.3944 29.1387 19.5486 28.2928 18.5052 28.2928C17.4618 28.2928 16.616 29.1387 16.616 30.1821C16.616 31.2255 17.4618 32.0713 18.5052 32.0713Z" fill="#81A1D4"/>
<path d="M13.7709 3.0956C14.6258 3.0956 15.3187 2.40263 15.3187 1.5478C15.3187 0.692974 14.6258 0 13.7709 0C12.9161 0 12.2231 0.692974 12.2231 1.5478C12.2231 2.40263 12.9161 3.0956 13.7709 3.0956Z" fill="#0FBBD0"/>
<path d="M1.11533 16.434C1.7313 16.434 2.23065 15.9347 2.23065 15.3187C2.23065 14.7027 1.7313 14.2034 1.11533 14.2034C0.499349 14.2034 0 14.7027 0 15.3187C0 15.9347 0.499349 16.434 1.11533 16.434Z" fill="#8399C3"/>
<path d="M33.141 16.9803C33.8827 16.9803 34.484 16.379 34.484 15.6373C34.484 14.8956 33.8827 14.2944 33.141 14.2944C32.3994 14.2944 31.7981 14.8956 31.7981 15.6373C31.7981 16.379 32.3994 16.9803 33.141 16.9803Z" fill="#F26C3F"/>
<path d="M13.4977 2.91351C15.387 2.91351 15.387 0 13.4977 0C11.6085 0 11.6085 2.91351 13.4977 2.91351Z" fill="#0FBBD0"/>
<path d="M42.0864 21.8968V13.6115C42.0864 13.0652 42.0636 12.0182 41.9954 11.3353H43.9756C44.0212 11.8816 44.0667 12.6328 44.0667 13.0652H44.135C44.6585 11.9271 46.047 11.0394 47.572 11.0394C50.2806 11.0394 51.5098 12.9742 51.5098 15.3414V21.8968H49.4157V16.047C49.4157 14.3399 48.9377 12.8148 47.0029 12.8148C45.3641 12.8148 44.1805 14.2033 44.1805 16.2974V21.9195H42.0864V21.8968Z" fill="#231F20"/>
<path d="M54.6736 16.6388C54.6736 13.3384 57.0408 11.0394 60.1364 11.0394C63.2548 11.0394 65.2123 13.1563 65.2123 16.525C65.2123 16.7526 65.2123 17.003 65.1895 17.2306H56.8132C56.8815 19.0288 58.4065 20.44 60.2502 20.44C61.6842 20.44 62.7312 19.7344 63.3231 18.824L64.8026 20.0076C63.6645 21.4871 62.1167 22.1699 60.2502 22.1699C57.0408 22.1927 54.6736 19.962 54.6736 16.6388ZM63.1182 15.6828C63.0727 14.0212 62.0939 12.701 60.1592 12.701C58.361 12.701 56.9725 14.044 56.836 15.6828H63.1182Z" fill="#231F20"/>
<path d="M67.2383 20.3035L68.7406 19.0288C69.2868 19.8482 70.3566 20.5083 71.5403 20.5083C72.5873 20.5083 73.6343 20.1214 73.6343 18.9605C73.6343 17.9818 72.6783 17.6176 70.8802 17.2079C69.4689 16.8664 67.8073 16.2746 67.8073 14.2944C67.8073 12.0182 69.7876 11.0622 71.7906 11.0622C73.2929 11.0622 74.8635 11.654 75.6146 12.7921L74.1579 14.0212C73.6799 13.2701 72.7694 12.701 71.6996 12.701C70.7436 12.701 69.7421 13.088 69.7421 14.0895C69.7421 14.9772 70.5387 15.3186 72.1548 15.6828C74.1579 16.1381 75.7057 16.9575 75.7057 18.8012C75.7057 21.305 73.6343 22.2155 71.4947 22.2155C69.8786 22.1927 68.2398 21.5781 67.2383 20.3035Z" fill="#231F20"/>
<path d="M77.4355 20.3035L78.9378 19.0288C79.4841 19.8482 80.5539 20.5083 81.7375 20.5083C82.7846 20.5083 83.8316 20.1214 83.8316 18.9605C83.8316 17.9818 82.8756 17.6176 81.0774 17.2079C79.6662 16.8664 78.0046 16.2746 78.0046 14.2944C78.0046 12.0182 79.9849 11.0622 81.9879 11.0622C83.4902 11.0622 85.0607 11.654 85.8119 12.7921L84.3551 14.0212C83.8771 13.2701 82.9667 12.701 81.8969 12.701C80.9409 12.701 79.9393 13.088 79.9393 14.0895C79.9393 14.9772 80.736 15.3186 82.3521 15.6828C84.3551 16.1381 85.9029 16.9575 85.9029 18.8012C85.9029 21.305 83.8316 22.2155 81.692 22.2155C80.0987 22.1927 78.4371 21.5781 77.4355 20.3035Z" fill="#231F20"/>
<path d="M88.179 16.5933C88.179 13.3384 90.6372 11.0394 93.8694 11.0394C97.1016 11.0394 99.5826 13.3384 99.5826 16.5933C99.5826 19.8482 97.1016 22.1927 93.8694 22.1927C90.6372 22.1927 88.179 19.8482 88.179 16.5933ZM97.3975 16.5933C97.3975 14.5903 96.1456 12.7921 93.8694 12.7921C91.616 12.7921 90.3413 14.5903 90.3413 16.5933C90.3413 18.5963 91.616 20.4173 93.8694 20.4173C96.1456 20.44 97.3975 18.5963 97.3975 16.5933Z" fill="#231F20"/>
<path d="M107.504 16.5933C107.504 13.475 109.644 11.0394 112.807 11.0394C114.515 11.0394 115.835 11.8816 116.563 12.9059H116.609V5.0531H118.703V21.8968H116.677V20.2352H116.631C115.835 21.5099 114.31 22.1927 112.83 22.1927C109.575 22.1927 107.504 19.6889 107.504 16.5933ZM116.745 16.6161C116.745 14.5903 115.311 12.7921 113.172 12.7921C110.873 12.7921 109.666 14.613 109.666 16.5933C109.666 18.5736 110.873 20.4173 113.172 20.4173C115.334 20.4401 116.745 18.6419 116.745 16.6161Z" fill="#0B5ED7"/>
<path d="M121.798 7.53416C121.798 6.78302 122.413 6.16846 123.187 6.16846C123.938 6.16846 124.598 6.7375 124.598 7.53416C124.598 8.2853 123.961 8.87711 123.187 8.87711C122.413 8.85435 121.798 8.26254 121.798 7.53416ZM122.117 21.8968V11.3354H124.211V21.8968H122.117Z" fill="#0B5ED7"/>
<path d="M127.102 25.3338L128.445 23.7177C129.355 24.742 130.857 25.4249 132.291 25.4249C135.068 25.4249 136.024 23.7177 136.024 21.5326V20.1669H135.979C135.205 21.3505 133.748 21.9878 132.246 21.9878C129.014 21.9878 126.92 19.5751 126.92 16.5478C126.92 13.5205 128.991 11.0394 132.223 11.0394C133.748 11.0394 135.228 11.6995 136.024 13.0197H136.07V11.3353H138.096V21.3733C138.096 24.4461 136.639 27.2686 132.246 27.2686C130.448 27.2458 128.422 26.5402 127.102 25.3338ZM136.161 16.5023C136.161 14.4992 134.704 12.7693 132.565 12.7693C130.357 12.7693 129.059 14.4537 129.059 16.5023C129.059 18.437 130.357 20.2352 132.565 20.2352C134.75 20.2352 136.161 18.5963 136.161 16.5023Z" fill="#0B5ED7"/>
<path d="M141.123 7.53416C141.123 6.78302 141.738 6.16846 142.512 6.16846C143.263 6.16846 143.923 6.7375 143.923 7.53416C143.923 8.2853 143.285 8.87711 142.512 8.87711C141.738 8.85435 141.123 8.26254 141.123 7.53416ZM141.442 21.8968V11.3354H143.536V21.8968H141.442Z" fill="#0B5ED7"/>
<path d="M147.223 18.7785V13.0653H145.197V11.3581H147.223V8.30804H149.294V11.3354H152.094V13.0425H149.294V18.5508C149.294 19.8255 149.75 20.3263 150.797 20.3263C151.184 20.3263 151.662 20.2352 152.026 20.0531L152.094 21.7602C151.593 21.9423 150.956 22.0561 150.319 22.0561C148.316 22.0789 147.223 20.9636 147.223 18.7785Z" fill="#0B5ED7"/>
<path d="M153.209 18.915C153.209 15.7511 156.965 15.3414 160.493 15.3414H160.562V15.0455C160.562 13.4749 159.514 12.7238 157.944 12.7238C156.76 12.7238 155.645 13.2473 154.939 13.9529L153.824 12.61C154.848 11.6312 156.442 11.0167 158.149 11.0167C161.176 11.0167 162.565 12.8148 162.565 15.1593V19.7799C162.565 20.4856 162.61 21.3733 162.724 21.874H160.835C160.721 21.396 160.653 20.8497 160.653 20.349H160.584C159.833 21.4871 158.627 22.1244 157.033 22.1244C155.372 22.1699 153.209 21.3505 153.209 18.915ZM160.584 17.4355V16.8892H160.061C157.989 16.8892 155.349 17.1168 155.349 18.8922C155.349 20.1441 156.464 20.5311 157.511 20.5311C159.492 20.5311 160.584 19.2109 160.584 17.4355Z" fill="#0B5ED7"/>
<path d="M165.865 21.8968V5.0531H167.959V21.8968H165.865Z" fill="#0B5ED7"/>
<path d="M170.645 16.6388C170.645 13.3384 173.012 11.0394 176.108 11.0394C179.226 11.0394 181.184 13.1563 181.184 16.525C181.184 16.7526 181.184 17.003 181.161 17.2306H172.785C172.853 19.0288 174.378 20.44 176.222 20.44C177.656 20.44 178.703 19.7344 179.294 18.824L180.774 20.0076C179.636 21.4871 178.088 22.1699 176.222 22.1699C173.012 22.1927 170.645 19.962 170.645 16.6388ZM179.067 15.6828C179.021 14.0212 178.043 12.701 176.108 12.701C174.31 12.701 172.921 14.044 172.785 15.6828H179.067Z" fill="#0B5ED7"/>
</svg>
