<svg width="43" height="14" viewBox="0 0 43 14" fill="none" xmlns="http://www.w3.org/2000/svg">
<path d="M0.926758 6.17627C0.867513 6.52751 0.941569 6.83643 1.14893 7.10303C1.35628 7.3654 1.66732 7.60872 2.08203 7.83301C2.50098 8.05729 2.96859 8.28581 3.48486 8.51855C4.00537 8.7513 4.45394 8.98405 4.83057 9.2168C5.21143 9.44954 5.52669 9.73519 5.77637 10.0737C6.02604 10.4123 6.14665 10.8101 6.13818 11.2671C6.12549 11.8172 5.97103 12.2764 5.6748 12.6445C5.37858 13.0127 4.99137 13.2856 4.51318 13.4634C4.03923 13.6411 3.52507 13.7342 2.9707 13.7427C2.29785 13.7511 1.69906 13.6559 1.17432 13.457C0.653809 13.2539 0.291992 12.8561 0.0888672 12.2637C0.0296224 12.0817 0.0232747 11.9103 0.0698242 11.7495C0.116374 11.5887 0.207357 11.4723 0.342773 11.4004C0.457031 11.3454 0.590332 11.3285 0.742676 11.3496C0.890788 11.3708 1.00293 11.4575 1.0791 11.6099C1.15527 11.7622 1.23991 11.9971 1.33301 12.3145C1.40495 12.5641 1.49593 12.7757 1.60596 12.9492C1.71598 13.1227 1.88737 13.2666 2.12012 13.3809C2.3571 13.4951 2.67448 13.5522 3.07227 13.5522C3.49544 13.548 3.89535 13.4486 4.27197 13.2539C4.65283 13.0592 4.94906 12.8075 5.16064 12.4985C5.37646 12.1854 5.46322 11.8553 5.4209 11.5083C5.38281 11.1571 5.18815 10.8376 4.83691 10.5498C4.57878 10.334 4.18099 10.0801 3.64355 9.78809C3.10612 9.49609 2.57503 9.19352 2.05029 8.88037C1.52555 8.56299 1.10449 8.23503 0.787109 7.89648C0.469727 7.55371 0.302572 7.18132 0.285645 6.7793C0.264486 6.2334 0.40625 5.78483 0.710938 5.43359C1.01562 5.08236 1.41553 4.84538 1.91064 4.72266C2.40999 4.5957 2.93262 4.58512 3.47852 4.69092C4.02865 4.79248 4.51953 4.99984 4.95117 5.31299C5.09505 5.41878 5.22624 5.55208 5.34473 5.71289C5.46322 5.86947 5.53727 6.02816 5.56689 6.18896C5.59652 6.34554 5.57324 6.48519 5.49707 6.60791C5.42513 6.7264 5.32568 6.80892 5.19873 6.85547C5.07601 6.89779 4.95329 6.90202 4.83057 6.86816C4.71208 6.83431 4.61263 6.7666 4.53223 6.66504C4.45605 6.56348 4.41797 6.44287 4.41797 6.30322C4.41797 6.17627 4.45394 6.0599 4.52588 5.9541C4.50049 5.6875 4.39258 5.46322 4.20215 5.28125C4.01172 5.09928 3.78743 4.96387 3.5293 4.875C3.27539 4.78613 3.0363 4.73747 2.81201 4.729C2.34229 4.71631 1.92969 4.84326 1.57422 5.10986C1.22298 5.37223 1.00716 5.7277 0.926758 6.17627ZM12.2446 12.5366C12.4858 12.6001 12.6361 12.7524 12.6953 12.9937C12.7376 13.1841 12.6974 13.3534 12.5747 13.5015C12.4562 13.6453 12.3039 13.7173 12.1177 13.7173C12.1304 13.7173 12.1261 13.7173 12.105 13.7173H7.09668V4.5957H7.87109V13.5205H11.1401C11.2502 13.5205 11.3411 13.4824 11.4131 13.4062C11.485 13.3258 11.521 13.2327 11.521 13.127C11.521 13.1227 11.521 13.1206 11.521 13.1206C11.521 12.9302 11.5929 12.7757 11.7368 12.6572C11.8849 12.5387 12.0542 12.4985 12.2446 12.5366ZM16.1865 4.6084H17.0181L19.7476 13.7236H18.8525L17.5005 9.2168C16.6922 9.45378 15.9855 9.84733 15.3804 10.3975C14.7795 10.9434 14.3542 11.5802 14.1045 12.3081L14.0981 12.3145C14.0812 12.3737 14.0897 12.4287 14.1235 12.4795C14.1616 12.526 14.2124 12.5514 14.2759 12.5557C14.297 12.5557 14.3161 12.5557 14.333 12.5557C14.46 12.5768 14.5679 12.634 14.6567 12.7271C14.7498 12.8201 14.8049 12.9323 14.8218 13.0635C14.8429 13.237 14.7943 13.3893 14.6758 13.5205C14.5615 13.6517 14.4176 13.7173 14.2441 13.7173C14.0833 13.7173 13.9458 13.6602 13.8315 13.5459C13.7173 13.4316 13.6602 13.2941 13.6602 13.1333C13.6602 13.0868 13.6665 13.0317 13.6792 12.9683L16.1548 4.71631L16.1865 4.6084ZM14.4219 11.2354C14.7308 10.6895 15.1413 10.2134 15.6533 9.80713C16.1696 9.39665 16.7536 9.09196 17.4053 8.89307L16.2627 5.09717L14.4219 11.2354ZM24.6733 4.5957C24.8215 4.5957 24.9484 4.65283 25.0542 4.76709C25.1642 4.88135 25.2192 5.01888 25.2192 5.17969C25.2192 5.34049 25.1642 5.47803 25.0542 5.59229C24.9484 5.70654 24.8215 5.76367 24.6733 5.76367C24.6691 5.76367 24.667 5.76367 24.667 5.76367C24.5146 5.75944 24.3771 5.80176 24.2544 5.89062C24.1359 5.97526 24.0576 6.08952 24.0195 6.2334L22.147 13.6475L22.1216 13.7554H21.9312H21.4233L19.1191 4.64014H19.8745C20.522 7.20459 21.2477 10.0822 22.0518 13.2729C24.2861 4.42432 24.978 1.69059 24.1274 5.07178C24.1613 4.93213 24.2269 4.81787 24.3242 4.729C24.4258 4.64014 24.5422 4.5957 24.6733 4.5957ZM26.1777 13.6284V4.51318H26.9521V5.33203V7.60449V8.72803V9.41357V10.2642V12.8096V13.6284H26.1777ZM32.354 4.6084C32.9211 4.65072 33.45 4.80941 33.9409 5.08447C34.4318 5.35531 34.8529 5.71712 35.2041 6.16992C35.3226 6.31803 35.3628 6.4873 35.3247 6.67773C35.2951 6.80046 35.2295 6.90625 35.1279 6.99512C35.0306 7.08398 34.9185 7.13265 34.7915 7.14111C34.5926 7.15381 34.4297 7.09033 34.3027 6.95068C34.1758 6.8068 34.1271 6.6333 34.1567 6.43018C34.2075 6.21436 34.3366 6.06624 34.5439 5.98584C34.5482 5.98584 34.5503 5.98372 34.5503 5.97949C34.618 5.95833 34.6582 5.9139 34.6709 5.84619C34.6836 5.77425 34.6646 5.71501 34.6138 5.66846C34.5207 5.58382 34.4276 5.50765 34.3345 5.43994C33.8182 5.05908 33.2406 4.87712 32.6016 4.89404C31.9626 4.90674 31.3405 5.10352 30.7354 5.48438C30.1302 5.86523 29.6203 6.39209 29.2056 7.06494C28.7909 7.74202 28.5348 8.45931 28.4375 9.2168C28.3444 9.97428 28.4121 10.681 28.6406 11.3369C28.8691 11.9886 29.2415 12.5028 29.7578 12.8794C30.2106 13.2137 30.7163 13.3957 31.2749 13.4253C31.8377 13.4507 32.3942 13.3301 32.9443 13.0635C33.4945 12.7969 33.9854 12.4054 34.417 11.8892C34.5439 11.9907 34.6857 12.0457 34.8423 12.0542C34.9946 12.0669 35.1385 12.0352 35.2739 11.959C34.855 12.543 34.3324 12.9937 33.7061 13.311C33.084 13.6242 32.4259 13.7554 31.7319 13.7046C30.9829 13.6538 30.3058 13.4041 29.7007 12.9556C29.0998 12.5028 28.6385 11.9167 28.3169 11.1973C27.9953 10.4736 27.862 9.69922 27.917 8.87402C27.972 8.04883 28.209 7.30192 28.6279 6.6333C29.0469 5.96045 29.5864 5.44206 30.2466 5.07812C30.9067 4.71419 31.6092 4.55762 32.354 4.6084ZM38.8223 4.6084H39.6538L42.3833 13.7236H41.4883L40.1362 9.2168C39.328 9.45378 38.6213 9.84733 38.0161 10.3975C37.4152 10.9434 36.9899 11.5802 36.7402 12.3081L36.7339 12.3145C36.717 12.3737 36.7254 12.4287 36.7593 12.4795C36.7974 12.526 36.8481 12.5514 36.9116 12.5557C36.9328 12.5557 36.9518 12.5557 36.9688 12.5557C37.0957 12.5768 37.2036 12.634 37.2925 12.7271C37.3856 12.8201 37.4406 12.9323 37.4575 13.0635C37.4787 13.237 37.43 13.3893 37.3115 13.5205C37.1973 13.6517 37.0534 13.7173 36.8799 13.7173C36.7191 13.7173 36.5815 13.6602 36.4673 13.5459C36.353 13.4316 36.2959 13.2941 36.2959 13.1333C36.2959 13.0868 36.3022 13.0317 36.3149 12.9683L38.7905 4.71631L38.8223 4.6084ZM37.0576 11.2354C37.3665 10.6895 37.777 10.2134 38.2891 9.80713C38.8053 9.39665 39.3893 9.09196 40.041 8.89307L38.8984 5.09717L37.0576 11.2354Z" fill="#616161"/>
</svg>
