<svg width="73" height="12" viewBox="0 0 73 12" fill="none" xmlns="http://www.w3.org/2000/svg">
<path d="M1.25781 11.5322H0V1.68848H1.76367L7.74512 8.44922V1.68848H8.99609V11.5322H7.23242L1.25781 4.77832V11.5322Z" fill="#616161"/>
<path d="M13.4189 1.72949C13.4189 1.90267 13.3848 2.06673 13.3164 2.22168C13.2526 2.37663 13.1637 2.51107 13.0498 2.625C12.9359 2.73893 12.8014 2.83008 12.6465 2.89844C12.4915 2.96224 12.3275 2.99414 12.1543 2.99414C11.9811 2.99414 11.8171 2.96224 11.6621 2.89844C11.5117 2.83008 11.3796 2.73893 11.2656 2.625C11.1517 2.51107 11.0605 2.37663 10.9922 2.22168C10.9284 2.06673 10.8965 1.90267 10.8965 1.72949C10.8965 1.55632 10.9284 1.39453 10.9922 1.24414C11.0605 1.08919 11.1517 0.954753 11.2656 0.84082C11.3796 0.726888 11.5117 0.638021 11.6621 0.574219C11.8171 0.505859 11.9811 0.47168 12.1543 0.47168C12.3275 0.47168 12.4915 0.505859 12.6465 0.574219C12.8014 0.638021 12.9359 0.726888 13.0498 0.84082C13.1637 0.954753 13.2526 1.08919 13.3164 1.24414C13.3848 1.39453 13.4189 1.55632 13.4189 1.72949ZM13.3164 11.5322H10.999V3.64355H13.3164V11.5322Z" fill="#616161"/>
<path d="M22.0527 9.00977C22.0527 9.35612 22.0026 9.66374 21.9023 9.93262C21.8021 10.2015 21.6654 10.4362 21.4922 10.6367C21.319 10.8327 21.1139 10.999 20.877 11.1357C20.64 11.2679 20.3848 11.375 20.1113 11.457C19.8424 11.5391 19.5599 11.5983 19.2637 11.6348C18.9674 11.6712 18.6735 11.6895 18.3818 11.6895C17.9899 11.6895 17.6436 11.6644 17.3428 11.6143C17.042 11.5641 16.7549 11.4844 16.4814 11.375C16.208 11.2611 15.9346 11.1152 15.6611 10.9375C15.3923 10.7598 15.0915 10.5433 14.7588 10.2881L16.1055 9.1875C16.2285 9.41992 16.3903 9.63184 16.5908 9.82324C16.7959 10.0101 17.0078 10.1719 17.2266 10.3086C17.4453 10.4453 17.6572 10.5501 17.8623 10.623C18.0674 10.696 18.2337 10.7324 18.3613 10.7324C18.4661 10.7324 18.5846 10.7301 18.7168 10.7256C18.849 10.7165 18.9834 10.7028 19.1201 10.6846C19.2568 10.6618 19.3913 10.6299 19.5234 10.5889C19.6556 10.5479 19.7718 10.4932 19.8721 10.4248C19.9769 10.3519 20.0589 10.263 20.1182 10.1582C20.182 10.0488 20.2139 9.91895 20.2139 9.76855C20.2139 9.61361 20.1729 9.47917 20.0908 9.36523C20.0133 9.24675 19.9108 9.14421 19.7832 9.05762C19.6556 8.97103 19.5098 8.89811 19.3457 8.83887C19.1816 8.77962 19.0153 8.72721 18.8467 8.68164C18.6826 8.63607 18.5231 8.59733 18.3682 8.56543C18.2132 8.52897 18.0788 8.49479 17.9648 8.46289C17.7552 8.40365 17.5342 8.3444 17.3018 8.28516C17.0693 8.22135 16.8392 8.15072 16.6113 8.07324C16.3835 7.99121 16.1647 7.89551 15.9551 7.78613C15.75 7.67676 15.5677 7.54688 15.4082 7.39648C15.2533 7.24154 15.1279 7.06152 15.0322 6.85645C14.9411 6.64681 14.8955 6.40299 14.8955 6.125C14.8955 5.61458 14.9958 5.18848 15.1963 4.84668C15.4014 4.50033 15.6702 4.22461 16.0029 4.01953C16.3356 3.8099 16.7139 3.66178 17.1377 3.5752C17.5615 3.48861 17.9922 3.44531 18.4297 3.44531C18.7305 3.44531 19.0472 3.47721 19.3799 3.54102C19.7126 3.60026 20.0361 3.69141 20.3506 3.81445C20.665 3.93294 20.959 4.07878 21.2324 4.25195C21.5059 4.42513 21.7337 4.62337 21.916 4.84668L20.5693 5.9541C20.4691 5.68066 20.3369 5.44596 20.1729 5.25C20.0133 5.05404 19.8379 4.89453 19.6465 4.77148C19.4596 4.64388 19.266 4.55046 19.0654 4.49121C18.8695 4.43197 18.6872 4.40234 18.5186 4.40234C18.3545 4.40234 18.1699 4.40918 17.9648 4.42285C17.7598 4.43652 17.5661 4.47526 17.3838 4.53906C17.2061 4.60286 17.0534 4.70085 16.9258 4.83301C16.8027 4.96061 16.7412 5.13835 16.7412 5.36621C16.7412 5.53027 16.7777 5.67155 16.8506 5.79004C16.9281 5.90397 17.0283 6.00423 17.1514 6.09082C17.2744 6.17285 17.4134 6.24349 17.5684 6.30273C17.7279 6.35742 17.8896 6.40755 18.0537 6.45312C18.2178 6.49414 18.3773 6.5306 18.5322 6.5625C18.6872 6.5944 18.8262 6.62858 18.9492 6.66504C19.1589 6.72428 19.3799 6.78581 19.6123 6.84961C19.8493 6.90885 20.0817 6.97949 20.3096 7.06152C20.5374 7.139 20.7562 7.23242 20.9658 7.3418C21.18 7.44661 21.3669 7.5765 21.5264 7.73145C21.6859 7.88639 21.8135 8.06868 21.9092 8.27832C22.0049 8.4834 22.0527 8.72721 22.0527 9.00977Z" fill="#616161"/>
<path d="M30.8027 5.5918L29.8047 5.98828C29.6452 5.48698 29.3786 5.10189 29.0049 4.83301C28.6312 4.56413 28.1823 4.42969 27.6582 4.42969C27.3757 4.42969 27.1227 4.47526 26.8994 4.56641C26.6807 4.65299 26.487 4.77376 26.3184 4.92871C26.1543 5.08366 26.013 5.26367 25.8945 5.46875C25.7806 5.67383 25.6872 5.89258 25.6143 6.125C25.5413 6.35742 25.4889 6.59896 25.457 6.84961C25.4251 7.0957 25.4092 7.33496 25.4092 7.56738C25.4092 7.81803 25.4229 8.07096 25.4502 8.32617C25.4775 8.58138 25.5231 8.82747 25.5869 9.06445C25.6553 9.29688 25.7441 9.51562 25.8535 9.7207C25.9629 9.92122 26.0996 10.0967 26.2637 10.2471C26.4323 10.3975 26.6305 10.516 26.8584 10.6025C27.0908 10.6891 27.3574 10.7324 27.6582 10.7324C27.8997 10.7324 28.1299 10.696 28.3486 10.623C28.5674 10.5501 28.7679 10.4476 28.9502 10.3154C29.1325 10.1833 29.2943 10.026 29.4355 9.84375C29.5768 9.66146 29.6885 9.45866 29.7705 9.23535L30.7754 9.60449C30.625 9.96452 30.4245 10.2767 30.1738 10.541C29.9277 10.8008 29.6475 11.0173 29.333 11.1904C29.0186 11.359 28.6813 11.4844 28.3213 11.5664C27.9613 11.6484 27.5967 11.6895 27.2275 11.6895C26.6305 11.6895 26.0768 11.5892 25.5664 11.3887C25.056 11.1836 24.6139 10.8988 24.2402 10.5342C23.8711 10.165 23.5817 9.72982 23.3721 9.22852C23.1624 8.72266 23.0576 8.16895 23.0576 7.56738C23.0576 6.96126 23.1602 6.40527 23.3652 5.89941C23.5749 5.39355 23.8643 4.95833 24.2334 4.59375C24.6025 4.22917 25.0423 3.94661 25.5527 3.74609C26.0632 3.54557 26.6214 3.44531 27.2275 3.44531C27.6104 3.44531 27.984 3.48861 28.3486 3.5752C28.7132 3.65723 29.0505 3.78711 29.3604 3.96484C29.6748 4.13802 29.9551 4.35905 30.2012 4.62793C30.4518 4.89681 30.6523 5.2181 30.8027 5.5918Z" fill="#616161"/>
<path d="M40.1201 11.5322H37.8096V10.5889C37.5361 10.9626 37.2057 11.2406 36.8184 11.4229C36.4355 11.6006 36.014 11.6895 35.5537 11.6895C34.9521 11.6895 34.4144 11.5824 33.9404 11.3682C33.4665 11.154 33.0654 10.8623 32.7373 10.4932C32.4092 10.1195 32.1585 9.68197 31.9854 9.18066C31.8122 8.67936 31.7256 8.1416 31.7256 7.56738C31.7256 6.99316 31.8122 6.4554 31.9854 5.9541C32.1585 5.4528 32.4092 5.01758 32.7373 4.64844C33.0654 4.27474 33.4665 3.98079 33.9404 3.7666C34.4144 3.55241 34.9521 3.44531 35.5537 3.44531C35.8591 3.44531 36.1484 3.49089 36.4219 3.58203C36.6999 3.67318 36.9528 3.80306 37.1807 3.97168C37.4131 4.13574 37.6159 4.33626 37.7891 4.57324C37.9668 4.80566 38.1058 5.06543 38.2061 5.35254L39.2314 3.63672H40.1201V11.5322ZM37.7959 7.56738C37.7959 7.3623 37.7845 7.14583 37.7617 6.91797C37.7435 6.6901 37.7093 6.46452 37.6592 6.24121C37.6091 6.0179 37.5384 5.80599 37.4473 5.60547C37.3607 5.40039 37.2467 5.22038 37.1055 5.06543C36.9688 4.90592 36.8024 4.7806 36.6064 4.68945C36.4105 4.59831 36.1826 4.55273 35.9229 4.55273C35.6631 4.55273 35.4375 4.60059 35.2461 4.69629C35.0547 4.78744 34.8906 4.91276 34.7539 5.07227C34.6172 5.22721 34.5033 5.40723 34.4121 5.6123C34.3255 5.81738 34.2572 6.03158 34.207 6.25488C34.1569 6.47819 34.1204 6.70378 34.0977 6.93164C34.0794 7.15495 34.0703 7.36686 34.0703 7.56738C34.0703 7.7679 34.0794 7.9821 34.0977 8.20996C34.1204 8.43783 34.1569 8.66341 34.207 8.88672C34.2572 9.11003 34.3255 9.32422 34.4121 9.5293C34.5033 9.73438 34.6172 9.91667 34.7539 10.0762C34.8906 10.2311 35.0547 10.3564 35.2461 10.4521C35.4375 10.5433 35.6631 10.5889 35.9229 10.5889C36.1598 10.5889 36.3695 10.541 36.5518 10.4453C36.7386 10.3451 36.9004 10.2129 37.0371 10.0488C37.1784 9.88477 37.2969 9.69792 37.3926 9.48828C37.4883 9.27865 37.5658 9.06217 37.625 8.83887C37.6842 8.61556 37.7275 8.39453 37.7549 8.17578C37.7822 7.95247 37.7959 7.74967 37.7959 7.56738Z" fill="#616161"/>
<path d="M44.3652 11.5322H42.0547V0H42.9434L44.3652 2.39941V11.5322Z" fill="#616161"/>
<path d="M54.2432 11.5322H51.9326V10.5889C51.6592 10.9626 51.3288 11.2406 50.9414 11.4229C50.5586 11.6006 50.137 11.6895 49.6768 11.6895C49.0752 11.6895 48.5374 11.5824 48.0635 11.3682C47.5895 11.154 47.1885 10.8623 46.8604 10.4932C46.5322 10.1195 46.2816 9.68197 46.1084 9.18066C45.9352 8.67936 45.8486 8.1416 45.8486 7.56738C45.8486 6.99316 45.9352 6.4554 46.1084 5.9541C46.2816 5.4528 46.5322 5.01758 46.8604 4.64844C47.1885 4.27474 47.5895 3.98079 48.0635 3.7666C48.5374 3.55241 49.0752 3.44531 49.6768 3.44531C49.9821 3.44531 50.2715 3.49089 50.5449 3.58203C50.8229 3.67318 51.0758 3.80306 51.3037 3.97168C51.5361 4.13574 51.7389 4.33626 51.9121 4.57324C52.0898 4.80566 52.2288 5.06543 52.3291 5.35254L53.3545 3.63672H54.2432V11.5322ZM51.9189 7.56738C51.9189 7.3623 51.9076 7.14583 51.8848 6.91797C51.8665 6.6901 51.8324 6.46452 51.7822 6.24121C51.7321 6.0179 51.6615 5.80599 51.5703 5.60547C51.4837 5.40039 51.3698 5.22038 51.2285 5.06543C51.0918 4.90592 50.9255 4.7806 50.7295 4.68945C50.5335 4.59831 50.3057 4.55273 50.0459 4.55273C49.7861 4.55273 49.5605 4.60059 49.3691 4.69629C49.1777 4.78744 49.0137 4.91276 48.877 5.07227C48.7402 5.22721 48.6263 5.40723 48.5352 5.6123C48.4486 5.81738 48.3802 6.03158 48.3301 6.25488C48.2799 6.47819 48.2435 6.70378 48.2207 6.93164C48.2025 7.15495 48.1934 7.36686 48.1934 7.56738C48.1934 7.7679 48.2025 7.9821 48.2207 8.20996C48.2435 8.43783 48.2799 8.66341 48.3301 8.88672C48.3802 9.11003 48.4486 9.32422 48.5352 9.5293C48.6263 9.73438 48.7402 9.91667 48.877 10.0762C49.0137 10.2311 49.1777 10.3564 49.3691 10.4521C49.5605 10.5433 49.7861 10.5889 50.0459 10.5889C50.2829 10.5889 50.4925 10.541 50.6748 10.4453C50.8617 10.3451 51.0234 10.2129 51.1602 10.0488C51.3014 9.88477 51.4199 9.69792 51.5156 9.48828C51.6113 9.27865 51.6888 9.06217 51.748 8.83887C51.8073 8.61556 51.8506 8.39453 51.8779 8.17578C51.9053 7.95247 51.9189 7.74967 51.9189 7.56738Z" fill="#616161"/>
<path d="M58.4199 10.5068C58.4199 10.68 58.388 10.8441 58.3242 10.999C58.2604 11.1494 58.1716 11.2816 58.0576 11.3955C57.9437 11.5049 57.8115 11.5915 57.6611 11.6553C57.5107 11.7236 57.349 11.7578 57.1758 11.7578C57.0026 11.7578 56.8408 11.7236 56.6904 11.6553C56.54 11.5915 56.4079 11.5049 56.2939 11.3955C56.18 11.2816 56.0911 11.1494 56.0273 10.999C55.9635 10.8441 55.9316 10.68 55.9316 10.5068C55.9316 10.3382 55.9635 10.1787 56.0273 10.0283C56.0911 9.87337 56.18 9.74121 56.2939 9.63184C56.4079 9.5179 56.54 9.42904 56.6904 9.36523C56.8408 9.29688 57.0026 9.2627 57.1758 9.2627C57.349 9.2627 57.5107 9.29688 57.6611 9.36523C57.8115 9.42904 57.9437 9.5179 58.0576 9.63184C58.1716 9.74121 58.2604 9.87337 58.3242 10.0283C58.388 10.1787 58.4199 10.3382 58.4199 10.5068Z" fill="#616161"/>
<path d="M62.5283 1.72949C62.5283 1.90267 62.4941 2.06673 62.4258 2.22168C62.362 2.37663 62.2731 2.51107 62.1592 2.625C62.0452 2.73893 61.9108 2.83008 61.7559 2.89844C61.6009 2.96224 61.4368 2.99414 61.2637 2.99414C61.0905 2.99414 60.9264 2.96224 60.7715 2.89844C60.6211 2.83008 60.4889 2.73893 60.375 2.625C60.2611 2.51107 60.1699 2.37663 60.1016 2.22168C60.0378 2.06673 60.0059 1.90267 60.0059 1.72949C60.0059 1.55632 60.0378 1.39453 60.1016 1.24414C60.1699 1.08919 60.2611 0.954753 60.375 0.84082C60.4889 0.726888 60.6211 0.638021 60.7715 0.574219C60.9264 0.505859 61.0905 0.47168 61.2637 0.47168C61.4368 0.47168 61.6009 0.505859 61.7559 0.574219C61.9108 0.638021 62.0452 0.726888 62.1592 0.84082C62.2731 0.954753 62.362 1.08919 62.4258 1.24414C62.4941 1.39453 62.5283 1.55632 62.5283 1.72949ZM62.4258 11.5322H60.1084V3.64355H62.4258V11.5322Z" fill="#616161"/>
<path d="M72.707 7.56738C72.707 7.97754 72.6523 8.36263 72.543 8.72266C72.4336 9.08268 72.2809 9.41536 72.085 9.7207C71.8936 10.026 71.6611 10.3018 71.3877 10.5479C71.1143 10.7894 70.8135 10.9945 70.4854 11.1631C70.1618 11.3317 69.8131 11.4616 69.4395 11.5527C69.0703 11.6439 68.6898 11.6895 68.2979 11.6895C67.9059 11.6895 67.5254 11.6439 67.1562 11.5527C66.7871 11.4616 66.4385 11.3317 66.1104 11.1631C65.7868 10.9945 65.4883 10.7894 65.2148 10.5479C64.9414 10.3018 64.7067 10.026 64.5107 9.7207C64.3193 9.41536 64.1689 9.08268 64.0596 8.72266C63.9502 8.35807 63.8955 7.97298 63.8955 7.56738C63.8955 7.16178 63.9502 6.77897 64.0596 6.41895C64.1689 6.05436 64.3193 5.7194 64.5107 5.41406C64.7067 5.10872 64.9414 4.83529 65.2148 4.59375C65.4883 4.34766 65.7868 4.1403 66.1104 3.97168C66.4385 3.80306 66.7871 3.67318 67.1562 3.58203C67.5254 3.49089 67.9059 3.44531 68.2979 3.44531C68.6898 3.44531 69.0703 3.49089 69.4395 3.58203C69.8131 3.67318 70.1618 3.80306 70.4854 3.97168C70.8135 4.1403 71.1143 4.34766 71.3877 4.59375C71.6611 4.83529 71.8936 5.10872 72.085 5.41406C72.2809 5.7194 72.4336 6.05436 72.543 6.41895C72.6523 6.77897 72.707 7.16178 72.707 7.56738ZM70.3555 7.56738C70.3555 7.34863 70.3418 7.11849 70.3145 6.87695C70.2917 6.63086 70.2506 6.3916 70.1914 6.15918C70.1322 5.9222 70.0501 5.69661 69.9453 5.48242C69.8451 5.26367 69.7197 5.07454 69.5693 4.91504C69.4189 4.75098 69.2389 4.62109 69.0293 4.52539C68.8197 4.42513 68.5758 4.375 68.2979 4.375C68.0335 4.375 67.7988 4.42513 67.5938 4.52539C67.3887 4.62565 67.2087 4.76009 67.0537 4.92871C66.9033 5.09277 66.7757 5.28418 66.6709 5.50293C66.5706 5.72168 66.4886 5.94954 66.4248 6.18652C66.361 6.41895 66.3154 6.65592 66.2881 6.89746C66.2607 7.13444 66.2471 7.35775 66.2471 7.56738C66.2471 7.77702 66.2607 8.0026 66.2881 8.24414C66.3154 8.48112 66.361 8.7181 66.4248 8.95508C66.4886 9.19206 66.5706 9.41992 66.6709 9.63867C66.7757 9.85286 66.9033 10.0443 67.0537 10.2129C67.2087 10.377 67.3887 10.5091 67.5938 10.6094C67.7988 10.7096 68.0335 10.7598 68.2979 10.7598C68.5713 10.7598 68.8128 10.7119 69.0225 10.6162C69.2321 10.516 69.4121 10.3838 69.5625 10.2197C69.7174 10.0557 69.8451 9.86654 69.9453 9.65234C70.0456 9.43815 70.1253 9.21257 70.1846 8.97559C70.2484 8.73861 70.2917 8.49935 70.3145 8.25781C70.3418 8.01628 70.3555 7.78613 70.3555 7.56738Z" fill="#616161"/>
</svg>
