<svg width="51" height="10" viewBox="0 0 51 10" fill="none" xmlns="http://www.w3.org/2000/svg">
<path d="M0 4.99994C0 3.90965 0.997821 3.00245 2.53445 2.53444C3.00245 0.997821 3.90965 0 5.00006 0C6.09047 0 6.99755 0.997821 7.46556 2.53444C9.00218 3.00245 10 3.90977 10 4.99994C10 6.0901 9.00218 6.99755 7.46556 7.46555C6.99755 9.0023 6.09035 10 5.00006 10C3.90977 10 3.00257 9.00218 2.53445 7.46555C0.997698 6.99755 0 6.09035 0 4.99994ZM5.00006 1.23127C4.66959 1.23127 4.27374 1.59277 3.96124 2.24781C4.29454 2.21124 4.64164 2.19215 5.00006 2.19215C5.35848 2.19215 5.70558 2.21124 6.03876 2.24781C5.72639 1.59265 5.33041 1.23127 5.00006 1.23127ZM3.42342 4.99994C3.42342 5.53135 3.47132 6.01549 3.55258 6.4473C3.98439 6.52856 4.46852 6.57646 4.99994 6.57646C5.53135 6.57646 6.01549 6.52856 6.4473 6.4473C6.52856 6.01549 6.57646 5.53135 6.57646 4.99994C6.57646 4.46852 6.52856 3.98439 6.4473 3.55258C6.01549 3.47132 5.53135 3.42342 4.99994 3.42342C4.46852 3.42342 3.98439 3.47132 3.55258 3.55258C3.47132 3.98439 3.42342 4.46852 3.42342 4.99994ZM8.76873 4.99994C8.76873 4.66947 8.40723 4.27361 7.75219 3.96124C7.78876 4.29454 7.80785 4.64164 7.80785 4.99994C7.80785 5.35824 7.78876 5.70546 7.75219 6.03876C8.40735 5.72639 8.76873 5.33041 8.76873 4.99994ZM5.00006 8.76873C5.33053 8.76873 5.72639 8.40735 6.03876 7.75219C5.70546 7.78876 5.35836 7.80785 5.00006 7.80785C4.64176 7.80785 4.29454 7.78876 3.96124 7.75219C4.27361 8.40735 4.66959 8.76873 5.00006 8.76873ZM2.24781 6.03876C2.21124 5.70546 2.19215 5.35836 2.19215 4.99994C2.19215 4.64152 2.21124 4.29454 2.24781 3.96124C1.59265 4.27361 1.23127 4.66947 1.23127 4.99994C1.23127 5.33041 1.59265 5.72626 2.24781 6.03876Z" fill="#616161"/>
<path d="M21.1411 0.267822V6.19019C21.1411 6.698 21.1178 7.13387 21.0713 7.4978C21.029 7.86173 20.9507 8.18547 20.8364 8.46899C20.7222 8.74829 20.5783 8.97681 20.4048 9.15454C20.2355 9.32804 20.0112 9.47192 19.7319 9.58618C19.4569 9.69621 19.1479 9.77238 18.8052 9.8147C18.4624 9.85701 18.0477 9.87817 17.561 9.87817C17.0913 9.87817 16.6914 9.85913 16.3613 9.82104C16.0312 9.78296 15.7266 9.71313 15.4473 9.61157C15.168 9.50578 14.9416 9.36825 14.7681 9.19897C14.5988 9.02547 14.4528 8.80119 14.3301 8.52612C14.2074 8.24683 14.1206 7.91886 14.0698 7.54224C14.0233 7.16561 14 6.71493 14 6.19019V0.267822H15.2886V6.35522C15.2886 6.70646 15.2886 6.96037 15.2886 7.11694C15.2928 7.27352 15.3055 7.46606 15.3267 7.69458C15.3478 7.91886 15.3753 8.07332 15.4092 8.15796C15.443 8.23836 15.498 8.33992 15.5742 8.46265C15.6546 8.58537 15.7435 8.66366 15.8408 8.69751C15.9424 8.72713 16.0799 8.76522 16.2534 8.81177C16.4269 8.85832 16.6131 8.88582 16.812 8.89429C17.0151 8.89852 17.2669 8.90063 17.5674 8.90063C17.9229 8.90063 18.2191 8.89006 18.4561 8.8689C18.6973 8.84774 18.9067 8.80542 19.0845 8.74194C19.2622 8.67847 19.3976 8.60653 19.4907 8.52612C19.5881 8.44149 19.6642 8.31877 19.7192 8.15796C19.7785 7.99715 19.8166 7.83 19.8335 7.65649C19.8504 7.48299 19.8589 7.25236 19.8589 6.9646L19.8525 0.267822H21.1411Z" fill="#616161"/>
<path d="M30.1421 9.72583H28.8027L24.2959 2.25464V9.72583H23.166V0.267822H24.4673L29.0122 7.84058V0.267822H30.1421V9.72583Z" fill="#616161"/>
<path d="M33.5825 9.72583H32.2939V0.267822H33.5825V9.72583Z" fill="#616161"/>
<path d="M41.2949 6.79321L42.3994 6.95825C42.3783 7.3645 42.3423 7.71151 42.2915 7.99927C42.2407 8.2828 42.1646 8.5367 42.063 8.76099C41.9657 8.98527 41.8451 9.16724 41.7012 9.30688C41.5573 9.4423 41.3711 9.55444 41.1426 9.64331C40.9183 9.73218 40.6644 9.79354 40.3809 9.82739C40.1016 9.86125 39.763 9.87817 39.3652 9.87817C38.9844 9.87817 38.6437 9.86759 38.3433 9.84644C38.0428 9.82951 37.7677 9.78931 37.5181 9.72583C37.2726 9.65812 37.0568 9.59465 36.8706 9.5354C36.6886 9.47192 36.5257 9.36825 36.3818 9.22437C36.2422 9.08049 36.1237 8.95142 36.0264 8.83716C35.9333 8.7229 35.8529 8.5494 35.7852 8.31665C35.7217 8.07967 35.673 7.87231 35.6392 7.69458C35.6053 7.51685 35.5778 7.25871 35.5566 6.92017C35.5397 6.58162 35.5291 6.2854 35.5249 6.03149C35.5207 5.77759 35.5186 5.42635 35.5186 4.97778C35.5186 4.50382 35.5207 4.12297 35.5249 3.83521C35.5291 3.54744 35.5418 3.23429 35.563 2.89575C35.5841 2.55721 35.6095 2.29484 35.6392 2.10864C35.673 1.92244 35.7238 1.71932 35.7915 1.49927C35.8634 1.27498 35.9438 1.10994 36.0327 1.00415C36.1216 0.894124 36.238 0.775635 36.3818 0.648682C36.5257 0.521729 36.6823 0.434977 36.8516 0.388428C37.0251 0.337646 37.2345 0.286865 37.48 0.236084C37.7254 0.185303 37.9878 0.153564 38.2671 0.140869C38.5506 0.128174 38.8786 0.121826 39.251 0.121826C39.6361 0.121826 39.964 0.136637 40.2349 0.16626C40.5057 0.19165 40.7596 0.244548 40.9966 0.324951C41.2336 0.401123 41.4282 0.504801 41.5806 0.635986C41.7329 0.762939 41.8662 0.930094 41.9805 1.13745C42.099 1.34481 42.1899 1.59025 42.2534 1.87378C42.3169 2.15308 42.3634 2.4895 42.3931 2.88306L41.2822 3.09888C41.2611 2.88306 41.242 2.70321 41.2251 2.55933C41.2082 2.41545 41.1828 2.27368 41.1489 2.13403C41.1193 1.99438 41.0939 1.88224 41.0728 1.79761C41.0558 1.70874 41.0177 1.6241 40.9585 1.5437C40.8993 1.45907 40.8506 1.39559 40.8125 1.35327C40.7786 1.31095 40.7131 1.27075 40.6157 1.23267C40.5184 1.19458 40.4359 1.16919 40.3682 1.15649C40.3047 1.13957 40.1968 1.12476 40.0444 1.11206C39.8963 1.09937 39.7673 1.09302 39.6572 1.09302C39.5472 1.09302 39.3864 1.09302 39.1748 1.09302C38.8786 1.09302 38.6353 1.09725 38.4448 1.10571C38.2586 1.10994 38.0703 1.12476 37.8799 1.15015C37.6937 1.17131 37.5456 1.20516 37.4355 1.25171C37.3298 1.29403 37.2303 1.35327 37.1372 1.42944C37.0441 1.50138 36.9764 1.59237 36.9341 1.70239C36.896 1.80819 36.8727 1.93726 36.8643 2.0896C36.8262 3.20679 36.8071 4.34725 36.8071 5.51099C36.8071 6.32349 36.8262 7.11694 36.8643 7.89136C36.8854 8.13257 36.9531 8.32088 37.0674 8.4563C37.1859 8.59172 37.4123 8.69963 37.7466 8.78003C38.0851 8.86043 38.5633 8.90063 39.1812 8.90063C39.5112 8.90063 39.7884 8.89217 40.0127 8.87524C40.237 8.85408 40.4253 8.80965 40.5776 8.74194C40.73 8.67 40.8464 8.60653 40.9268 8.55151C41.0072 8.49227 41.0706 8.38013 41.1172 8.21509C41.168 8.05005 41.1997 7.91252 41.2124 7.80249C41.2293 7.68823 41.2463 7.49569 41.2632 7.22485C41.2674 7.16561 41.2695 7.11906 41.2695 7.08521C41.2738 7.05135 41.278 7.00692 41.2822 6.9519C41.2865 6.89266 41.2907 6.83976 41.2949 6.79321Z" fill="#616161"/>
<path d="M50.8354 9.72583H49.5278L48.8105 7.30737H45.313L44.6211 9.72583H43.3833L46.2842 0.267822H48.0044L50.8354 9.72583ZM48.5439 6.39331L47.7441 3.55591L47.084 1.23267C46.8385 2.10864 46.6227 2.8619 46.4365 3.49243L45.5859 6.39331H48.5439Z" fill="#616161"/>
</svg>
