<svg width="73" height="10" viewBox="0 0 73 10" fill="none" xmlns="http://www.w3.org/2000/svg">
<path d="M6.032 9.815C2.275 9.815 0.117 8.918 0 6.474H3.172C3.172 7.15 3.874 7.605 5.902 7.605C7.969 7.605 8.359 7.319 8.359 6.825C8.359 6.253 8.008 6.136 5.746 5.993L5.291 5.967C1.716 5.759 0.143 4.875 0.143 2.873C0.143 0.962 2.184 0 5.395 0C9.061 0 11.024 1.118 11.141 3.185H7.969C7.969 2.47 7.124 2.21 5.369 2.21C3.718 2.21 3.315 2.47 3.315 2.873C3.315 3.354 3.666 3.536 5.759 3.679L6.292 3.718C9.477 3.965 11.531 4.303 11.531 6.708C11.531 9.061 9.477 9.815 6.032 9.815Z" fill="#616161"/>
<path d="M11.7686 9.555L16.5526 0.220999H20.4526L25.2236 9.555H21.9606L21.1416 7.826H15.8506L15.0186 9.555H11.7686ZM16.8906 5.629H20.0886L18.4896 2.288L16.8906 5.629Z" fill="#616161"/>
<path d="M26.257 9.555V0.220999H31.028L33.797 6.032L36.553 0.220999H41.311V9.555H38.256V3.12L35.214 9.555H32.367L29.312 3.12V9.555H26.257Z" fill="#616161"/>
<path d="M42.6055 2.795V0.220999H53.7075V2.795H49.6905V9.555H46.6355V2.795H42.6055Z" fill="#616161"/>
<path d="M54.9864 9.555V0.220999H58.0414V9.555H54.9864Z" fill="#616161"/>
<path d="M63.5956 9.555L59.0586 0.220999H62.3086L65.7796 7.488L69.2506 0.220999H72.5136L67.9506 9.555H63.5956Z" fill="#616161"/>
</svg>
