<svg width="66" height="12" viewBox="0 0 66 12" fill="none" xmlns="http://www.w3.org/2000/svg">
<path d="M0 0H4V12H0V0Z" fill="#616161"/>
<path d="M6 0H8V12H6V0Z" fill="#616161"/>
<path d="M19.3635 6.39C20.8835 6.39 21.6435 6.87333 21.6435 7.84C21.6435 8.29333 21.5402 8.68 21.3335 9C21.1268 9.31333 20.7568 9.56 20.2235 9.74C19.6902 9.91333 18.9502 10 18.0035 10H13.5035C13.5568 8.70667 13.5835 7.49667 13.5835 6.37C13.5835 5.24333 13.5568 4.03333 13.5035 2.74H15.8535V2.75H17.9835C18.8102 2.75 19.4602 2.82 19.9335 2.96C20.4135 3.09333 20.7502 3.29 20.9435 3.55C21.1435 3.81 21.2435 4.14 21.2435 4.54C21.2435 4.94667 21.1002 5.31 20.8135 5.63C20.5335 5.94333 20.0502 6.19667 19.3635 6.39ZM15.8535 4.57V5.5H17.7735C18.1868 5.5 18.4735 5.46333 18.6335 5.39C18.8002 5.31667 18.8835 5.18333 18.8835 4.99C18.8835 4.83667 18.7968 4.73 18.6235 4.67C18.4569 4.60333 18.1735 4.57 17.7735 4.57H15.8535ZM17.7735 8.17C18.1202 8.17 18.3835 8.15667 18.5635 8.13C18.7502 8.09667 18.8835 8.04333 18.9635 7.97C19.0435 7.89 19.0835 7.78333 19.0835 7.65C19.0835 7.47667 18.9868 7.35333 18.7935 7.28C18.6068 7.2 18.2668 7.16 17.7735 7.16H15.8535V8.17H17.7735Z" fill="#616161"/>
<path d="M26.8891 10.1C25.3624 10.1 24.2391 9.77 23.5191 9.11C22.7991 8.44333 22.4391 7.51 22.4391 6.31C22.4391 5.12333 22.7957 4.19667 23.5091 3.53C24.2291 2.86333 25.3557 2.53 26.8891 2.53C28.4291 2.53 29.5557 2.86333 30.2691 3.53C30.9891 4.19667 31.3491 5.12333 31.3491 6.31C31.3491 7.51667 30.9924 8.45 30.2791 9.11C29.5657 9.77 28.4357 10.1 26.8891 10.1ZM26.8891 8.06C27.6291 8.06 28.1624 7.92 28.4891 7.64C28.8157 7.35333 28.9791 6.91 28.9791 6.31C28.9791 5.72333 28.8157 5.28667 28.4891 5C28.1624 4.71333 27.6291 4.57 26.8891 4.57C26.1557 4.57 25.6257 4.71333 25.2991 5C24.9724 5.28667 24.8091 5.72333 24.8091 6.31C24.8091 6.90333 24.9724 7.34333 25.2991 7.63C25.6257 7.91667 26.1557 8.06 26.8891 8.06Z" fill="#616161"/>
<path d="M37.3661 10C37.0528 9.43333 36.5328 8.56667 35.8061 7.4L34.6361 8.56V10H32.1461C32.1994 8.70667 32.2261 7.49667 32.2261 6.37C32.2261 5.24333 32.1994 4.03333 32.1461 2.74H34.6361V5.67C35.8628 4.45667 36.7361 3.48 37.2561 2.74H40.4961L37.3461 5.86C37.8128 6.51333 38.3361 7.22333 38.9161 7.99C39.5028 8.75667 40.0328 9.42667 40.5061 10H37.3661Z" fill="#616161"/>
<path d="M47.1162 4.73C46.3229 4.69 45.7363 4.66667 45.3563 4.66V8.08C45.7429 8.07333 46.3296 8.05 47.1162 8.01V10H41.3063V8.01C42.0729 8.05 42.6562 8.07333 43.0563 8.08V4.66C42.6562 4.66667 42.0729 4.69 41.3063 4.73V2.74H47.1162V4.73Z" fill="#616161"/>
<path d="M56.3076 2.75C56.2609 3.87667 56.2376 5.08333 56.2376 6.37C56.2376 7.66333 56.2609 8.87333 56.3076 10H52.7276L50.3076 4.54L50.4876 10H47.9176C47.9709 8.70667 47.9976 7.49667 47.9976 6.37C47.9976 5.25 47.9709 4.04333 47.9176 2.75H51.5976L54.0276 8.36L53.8576 2.75H56.3076Z" fill="#616161"/>
<path d="M61.227 5.86H65.497V10H63.737L63.527 8.23C63.327 8.86333 62.9704 9.33333 62.457 9.64C61.9437 9.94667 61.317 10.1 60.577 10.1C59.9037 10.1 59.3037 9.95 58.777 9.65C58.257 9.35 57.847 8.92 57.547 8.36C57.2537 7.8 57.107 7.14667 57.107 6.4C57.107 5.20667 57.4637 4.26333 58.177 3.57C58.8904 2.87667 60.0004 2.53 61.507 2.53C62.367 2.53 63.1237 2.67 63.777 2.95C64.437 3.23 64.997 3.66333 65.457 4.25C65.157 4.40333 64.5704 4.71 63.697 5.17L63.447 5.31C63.187 5.05 62.8837 4.85667 62.537 4.73C62.1904 4.59667 61.8237 4.53 61.437 4.53C60.797 4.53 60.3204 4.7 60.007 5.04C59.6937 5.37333 59.537 5.78667 59.537 6.28C59.537 6.81333 59.7037 7.24333 60.037 7.57C60.377 7.89667 60.8937 8.06 61.587 8.06C61.887 8.06 62.177 8.01667 62.457 7.93C62.7437 7.84333 62.9837 7.69333 63.177 7.48H61.227V5.86Z" fill="#616161"/>
</svg>
