<svg width="58" height="19" viewBox="0 0 58 19" fill="none" xmlns="http://www.w3.org/2000/svg">
<path d="M19 7.59229H11.4077L16.2175 2.78249L14.8686 1.43347L9.50008 6.80219V0H7.59229V7.59229L2.78249 2.78249L1.43347 4.13136L6.80219 9.50008H0V11.4077H7.59229L2.78249 16.2175L4.13136 17.5665L9.50008 12.198V19H11.4077V11.4077L16.2175 16.2175L17.5665 14.8686L12.198 9.50008H19V7.59229Z" fill="#616161"/>
<path d="M27 14.1085V4.8915H28.742V14.1085H27Z" fill="#616161"/>
<path d="M30.9229 14.1085V4.8915H39.9969V6.2305H32.6649V8.8695H39.7369V10.1175H32.6649V12.7565H39.9969V14.1085H30.9229Z" fill="#616161"/>
<path d="M41.5966 14.1085L46.7056 4.8915H48.9156L53.9986 14.1085H52.1396L51.0086 12.0025H44.5996L43.4686 14.1085H41.5966ZM45.3016 10.7025H50.3066L47.8106 6.0355L45.3016 10.7025Z" fill="#616161"/>
<path d="M55.6772 14.1085V12.5095H57.7182V14.1085H55.6772Z" fill="#616161"/>
</svg>
