<svg width="160" height="20" viewBox="0 0 160 20" fill="none" xmlns="http://www.w3.org/2000/svg">
<g opacity="0.4">
<path fill-rule="evenodd" clip-rule="evenodd" d="M141 3.23235V17.5912C141 18.8239 141.982 19.8235 143.194 19.8235H157.264C158.476 19.8235 159.458 18.8239 159.458 17.5912V3.23235C159.458 1.99912 158.476 1 157.264 1H143.194C141.982 1 141 1.99912 141 3.23235ZM156.572 3.35156C156.891 3.35156 157.149 3.61495 157.149 3.93943V5.70457C157.149 6.02905 156.891 6.29243 156.572 6.29243H154.842C154.524 6.29243 154.266 6.02905 154.266 5.70457V3.93943C154.266 3.61495 154.524 3.35156 154.842 3.35156H156.572ZM150.249 14.0431C148.289 14.0431 146.699 12.4263 146.699 10.4317C146.699 8.43759 148.289 6.82031 150.249 6.82031C152.209 6.82031 153.798 8.43759 153.798 10.4317C153.798 12.4263 152.209 14.0431 150.249 14.0431ZM143.307 18.0605C142.989 18.0605 142.73 17.7966 142.73 17.4721V8.64844H145.038C144.737 9.08947 144.636 9.91248 144.636 10.4351C144.636 13.585 147.155 16.148 150.25 16.148C153.347 16.148 155.866 13.585 155.866 10.4351C155.866 9.91248 155.793 9.1023 155.42 8.64844H157.728V17.4721C157.728 17.7966 157.469 18.0605 157.151 18.0605H143.307Z" fill="#2F3042"/>
<path fill-rule="evenodd" clip-rule="evenodd" d="M107.149 1.17627C104.801 1.17627 102.896 3.19197 102.896 5.67788C102.896 6.03097 102.933 6.37321 103.006 6.70287C99.4702 6.5149 96.3359 4.72488 94.2364 1.99786C93.8698 2.66519 93.6606 3.43936 93.6606 4.26381C93.6606 5.82472 94.4113 7.2028 95.5535 8.0101C94.857 7.98839 94.1998 7.78385 93.6251 7.44904V7.50389C93.6251 9.68585 95.0918 11.5062 97.0396 11.9181C96.683 12.0238 96.3065 12.0769 95.9184 12.0769C95.6443 12.0769 95.3769 12.0495 95.1178 11.9969C95.6593 13.7847 97.2295 15.0868 99.0915 15.1216C97.6359 16.3294 95.8005 17.0493 93.8078 17.0493C93.4646 17.0493 93.1252 17.0288 92.793 16.9876C94.6754 18.2629 96.9128 19.0085 99.3146 19.0085C107.141 19.0085 111.419 12.1501 111.419 6.20066C111.419 6.00469 111.415 5.80929 111.408 5.61732C112.239 4.98256 112.961 4.1901 113.529 3.28738C112.768 3.64504 111.947 3.88729 111.087 3.99585C111.965 3.43936 112.64 2.55721 112.957 1.50593C112.135 2.02129 111.226 2.39609 110.254 2.59663C109.48 1.72247 108.374 1.17627 107.149 1.17627Z" fill="#2F3042"/>
<path fill-rule="evenodd" clip-rule="evenodd" d="M63.5781 10.8771L64.0728 7.3217L60.274 7.3217V5.05172C60.274 4.02235 60.5824 3.32089 62.1752 3.32089L64.2066 3.32V0.14008C63.8552 0.0968294 62.6494 0 61.2465 0C58.3176 0 56.3125 1.65687 56.3125 4.69971V7.3217H53V10.8771H56.3125V20H60.274V10.8771H63.5781Z" fill="#2F3042"/>
<path d="M7.87793 2C9.91912 2 11.7792 2.80226 13.1787 4.11914C11.5303 5.72913 11.5843 5.82526 10.9365 6.49512C10.127 5.80303 9.24429 5.30664 7.87793 5.30664C5.29337 5.30665 3.2764 7.47263 3.27637 10.1445C3.27637 12.8171 5.29334 14.9834 7.87793 14.9834C10.4318 14.9834 11.4692 13.8444 12.1367 11.7529C10.9043 11.7529 7.87793 11.7578 7.87793 11.7578V8.53223H15.4434C15.9701 12.4355 14.3808 18.29 7.87793 18.29C3.52746 18.29 0 14.6428 0 10.1445C3.78922e-05 5.64629 3.52748 2.00001 7.87793 2ZM22.0742 5.87109V8.69336H24.8037V10.709H22.0742V13.6133H20.125V10.709H17.3164V8.69336H20.125V5.87109H22.0742Z" fill="#2F3042"/>
</g>
</svg>
